<?xml version="1.0" encoding="UTF-8" standalone="no"?>
<!-- Created with Inkscape (http://www.inkscape.org/) -->

<svg
   width="1390.0164"
   height="1383.3738"
   viewBox="0 0 367.77515 366.01765"
   version="1.1"
   id="svg1"
   xml:space="preserve"
   xmlns:inkscape="http://www.inkscape.org/namespaces/inkscape"
   xmlns:sodipodi="http://sodipodi.sourceforge.net/DTD/sodipodi-0.dtd"
   xmlns="http://www.w3.org/2000/svg"
   xmlns:svg="http://www.w3.org/2000/svg"><sodipodi:namedview
     id="namedview1"
     pagecolor="#ffffff"
     bordercolor="#000000"
     borderopacity="0.25"
     inkscape:showpageshadow="2"
     inkscape:pageopacity="0.0"
     inkscape:pagecheckerboard="0"
     inkscape:deskcolor="#d1d1d1"
     inkscape:document-units="mm" /><defs
     id="defs1" /><g
     inkscape:label="Camada 1"
     inkscape:groupmode="layer"
     id="layer1"
     transform="translate(-14.112418,-15.488147)"><path
       id="path10"
       style="opacity:1;fill:none;fill-opacity:1;stroke:#3fffb6;stroke-width:10;stroke-linecap:round;stroke-linejoin:round;stroke-dasharray:none;stroke-opacity:1"
       d="M 58.864864,210.99614 57.335906,316.49421 198,376.50578 m 141.04634,-164.36292 0.76446,103.96911 -140.28185,59.62933 0.76448,-149.07335 m 94.01169,-116.41343 73.79141,41.11227 -31.72587,11.84942 M 57.335906,161.68726 19.111969,193.03089 161.68726,255.3359 199.52895,225.52123 m 137.98842,-63.83397 39.37066,32.1081 -142.57529,59.62935 -34.78379,-30.19691 m -82.5637,-89.82626 -60.776061,29.43243 141.428571,61.54054 140.66409,-61.92277 -55.04246,-28.66796 m -163.33476,-81.725666 5.07856,5.709669 5.19665,5.842433 m 16.41012,19.095509 5.07856,5.709669 5.19665,5.842433 m 2.80072,-37.613772 -12.43307,9.189657 m -17.29376,15.319076 -12.43307,9.189657 M 277.5068,139.13502 c 9.62621,-12.6108 17.07586,-27.00466 21.82496,-42.150139 6.27228,-19.811934 5.38815,-43.797549 -8.97172,-59.854436 C 282.22275,28.031508 273.7726,22.830871 258.1132,20.917774 235.53396,18.159286 220.5747,27.841376 199.46599,57.160482 189.0335,37.675356 164.46227,21.099913 145.81903,21.291812 c -18.64324,0.191899 -28.61061,5.36081 -37.24709,15.807245 -13.725721,16.602232 -15.244003,40.042502 -8.971719,59.854436 4.749099,15.145477 12.198749,29.539337 21.824959,42.150137 21.19787,24.45598 47.22318,45.10372 76.99346,59.01342 29.77028,-13.6756 57.89029,-34.52605 79.08816,-58.98203 z"
       sodipodi:nodetypes="cccccccccccccccccccccccccccccccccccsscsscccc" /></g></svg>
